HIERARCHY
ROOT joint_Root
{
	OFFSET 0.0 0.0 0.0
	CHANNELS 6 Xposition Yposition Zposition Zrotation Xrotation Yrotation 
	JOINT Hips
	{
		OFFSET 4.5925 91.4895 -427.239
		CHANNELS 6 Xposition Yposition Zposition Zrotation Xrotation Yrotation 
		JOINT Spine
		{
			OFFSET 15.7357 0.0 0.0
			CHANNELS 6 Xposition Yposition Zposition Zrotation Xrotation Yrotation 
			JOINT Chest
			{
				OFFSET 8.98455 -0.406207 0.0
				CHANNELS 6 Xposition Yposition Zposition Zrotation Xrotation Yrotation 
				JOINT Neck
				{
					OFFSET 16.3773 0.0 0.0
					CHANNELS 6 Xposition Yposition Zposition Zrotation Xrotation Yrotation 
					JOINT Head
					{
						OFFSET 6.45672 0.0 0.0
						CHANNELS 6 Xposition Yposition Zposition Zrotation Xrotation Yrotation 
						End Site
						{
							OFFSET 0.0 0.0 0.0
						}
					}
				}
				JOINT Shoulder_L
				{
					OFFSET 12.9942 -0.242716 4.98039
					CHANNELS 6 Xposition Yposition Zposition Zrotation Xrotation Yrotation 
					JOINT UpperArm_L
					{
						OFFSET 5.34809 0.0 0.0
						CHANNELS 6 Xposition Yposition Zposition Zrotation Xrotation Yrotation 
						JOINT LowerArm_L
						{
							OFFSET 24.3286 1.87007e-05 0.0
							CHANNELS 6 Xposition Yposition Zposition Zrotation Xrotation Yrotation 
							JOINT Hand_L
							{
								OFFSET 22.2916 0.0 0.0
								CHANNELS 6 Xposition Yposition Zposition Zrotation Xrotation Yrotation 
								End Site
								{
									OFFSET 0.0 0.0 0.0
								}
							}
						}
					}
				}
				JOINT Shoulder_R
				{
					OFFSET 12.9945 -0.242716 -4.98039
					CHANNELS 6 Xposition Yposition Zposition Zrotation Xrotation Yrotation 
					JOINT UpperArm_R
					{
						OFFSET -5.34813 0.0 0.0
						CHANNELS 6 Xposition Yposition Zposition Zrotation Xrotation Yrotation 
						JOINT LowerArm_R
						{
							OFFSET -24.3289 0.000322201 0.0
							CHANNELS 6 Xposition Yposition Zposition Zrotation Xrotation Yrotation 
							JOINT Hand_R
							{
								OFFSET -22.2915 -0.000108084 0.0
								CHANNELS 6 Xposition Yposition Zposition Zrotation Xrotation Yrotation 
								End Site
								{
									OFFSET 0.0 0.0 0.0
								}
							}
						}
					}
				}
			}
		}
		JOINT UpperLeg_L
		{
			OFFSET -2.19248 -6.46944 0.0
			CHANNELS 6 Xposition Yposition Zposition Zrotation Xrotation Yrotation 
			JOINT LowerLeg_L
			{
				OFFSET 39.0811 0.0 -1.23785e-05
				CHANNELS 6 Xposition Yposition Zposition Zrotation Xrotation Yrotation 
				JOINT Foot_L
				{
					OFFSET 40.9854 0.0 -1.26872e-05
					CHANNELS 6 Xposition Yposition Zposition Zrotation Xrotation Yrotation 
					JOINT Toes_L
					{
						OFFSET 11.7543 0.0 0.0
						CHANNELS 6 Xposition Yposition Zposition Zrotation Xrotation Yrotation 
						End Site
						{
							OFFSET 0.0 0.0 0.0
						}
					}
				}
			}
		}
		JOINT UpperLeg_R
		{
			OFFSET -2.19251 6.46944 0.0
			CHANNELS 6 Xposition Yposition Zposition Zrotation Xrotation Yrotation 
			JOINT LowerLeg_R
			{
				OFFSET -39.0811 -0.00228153 -0.0401928
				CHANNELS 6 Xposition Yposition Zposition Zrotation Xrotation Yrotation 
				JOINT Foot_R
				{
					OFFSET -40.9854 0.0 0.0
					CHANNELS 6 Xposition Yposition Zposition Zrotation Xrotation Yrotation 
					JOINT Toes_R
					{
						OFFSET -11.7543 0.0 0.0
						CHANNELS 6 Xposition Yposition Zposition Zrotation Xrotation Yrotation 
						End Site
						{
							OFFSET 0.0 0.0 0.0
						}
					}
				}
			}
		}
	}
}
MOTION
Frames:	9
Frame Time:	0.0333333
0.000000 0.000000 0.000000 0.000000 0.000000 -0.000000 0.780524 81.434000 -0.522983 90.713700 1.656020 12.621600 15.735700 0.000005 -0.000001 104.213000 79.368700 -105.905000 8.984550 -0.406207 -0.000000 12.961100 5.092280 -3.963070 16.377300 -0.000001 -0.000001 -0.739060 -8.938870 2.751920 6.456720 -0.000001 -0.000000 -2.761800 -15.307800 7.482810 12.994200 -0.242716 4.980390 -93.060000 7.275470 -67.114000 5.348090 -0.000007 -0.000001 -71.456900 9.411720 9.588690 24.328600 0.000019 0.000005 0.667399 1.474080 -24.364700 22.291600 -0.000001 0.000005 19.529800 5.162740 3.636630 12.994500 -0.242716 -4.980390 88.796100 7.578490 -80.946000 -5.348130 -0.000001 -0.000004 -62.037500 28.976700 -11.004500 -24.328900 0.000322 -0.000009 -0.875622 -2.026280 -23.351400 -22.291500 -0.000108 -0.000004 16.170700 5.414500 -3.414410 -2.192480 -6.469440 -0.000000 -175.602000 -14.829000 -14.758100 39.081100 -0.000007 -0.000012 -0.140726 0.068428 64.070400 40.985400 -0.000006 -0.000013 6.568730 10.137300 -87.022400 11.754300 -0.000000 0.000003 -0.000043 -0.000494 -16.596800 -2.192510 6.469440 -0.000001 174.163000 12.509300 164.865000 -39.081100 -0.002282 -0.040193 0.113071 -0.050667 65.250400 -40.985400 0.000008 0.000006 3.674470 0.247635 -85.856600 -11.754300 -0.000006 -0.000006 -1.051140 -1.297330 -17.218700
0.000000 0.000000 0.000000 0.000000 0.000000 -0.000000 1.575780 82.783900 -0.494655 91.328000 -2.465670 12.218800 15.735700 0.000005 -0.000001 103.342000 79.822400 -104.547000 8.984550 -0.406207 -0.000000 12.118400 4.610280 -2.898410 16.377300 -0.000001 -0.000001 -0.763631 -7.500000 2.678330 6.456720 -0.000001 -0.000000 -2.521830 -12.560100 5.578030 12.994200 -0.242716 4.980390 -92.775500 6.304360 -66.178500 5.348090 -0.000007 -0.000001 -70.964500 5.374120 10.887600 24.328600 0.000019 0.000005 -0.395879 -0.853849 -24.878400 22.291600 -0.000001 0.000005 18.565400 5.191510 2.930630 12.994500 -0.242716 -4.980390 88.744200 7.655560 -80.655400 -5.348130 -0.000001 -0.000004 -60.767500 29.123400 -13.540500 -24.328900 0.000322 -0.000009 -0.809640 -1.832130 -23.819000 -22.291500 -0.000108 -0.000004 15.933300 5.414880 -3.427470 -2.192480 -6.469440 -0.000000 -176.372000 -17.677600 -12.610900 39.081100 -0.000007 -0.000012 -0.133483 0.076981 60.028900 40.985400 -0.000006 -0.000013 6.020790 8.796330 -85.358100 11.754300 -0.000000 0.000003 -0.000043 -0.000497 -16.596900 -2.192510 6.469440 -0.000001 173.637000 9.702790 165.366000 -39.081100 -0.002282 -0.040193 0.084772 -0.043700 61.824600 -40.985400 0.000008 0.000006 3.897380 1.926430 -83.746900 -11.754300 -0.000006 -0.000006 -0.910868 -1.119900 -17.291100
0.000000 0.000000 0.000000 0.000000 0.000000 -0.000000 2.172640 84.844400 -0.421432 91.658100 -5.954640 11.402000 15.735700 0.000005 -0.000001 102.872000 80.609600 -103.238000 8.984550 -0.406207 -0.000000 10.576400 4.145910 -1.116000 16.377300 -0.000001 -0.000001 0.221391 -5.204990 1.689780 6.456720 -0.000001 -0.000000 -2.342310 -8.797800 1.499690 12.994200 -0.242716 4.980390 -92.182300 4.755260 -65.313100 5.348090 -0.000007 -0.000001 -65.410900 0.902720 6.795240 24.328600 0.000019 0.000005 4.764090 9.702620 -26.309200 22.291600 -0.000001 0.000005 16.660600 5.246010 1.537180 12.994500 -0.242716 -4.980390 88.750900 7.120190 -80.023200 -5.348130 -0.000001 -0.000004 -61.149700 28.805900 -13.752800 -24.328900 0.000322 -0.000009 -0.590557 -1.219860 -25.796300 -22.291500 -0.000108 -0.000004 16.253500 5.428320 -3.881670 -2.192480 -6.469440 -0.000000 -177.029000 -19.819400 -9.955530 39.081100 -0.000007 -0.000012 -0.128364 0.094556 53.625100 40.985400 -0.000006 -0.000013 5.282560 7.741460 -82.407200 11.754300 -0.000000 0.000003 -0.000031 -0.000367 -16.591900 -2.192510 6.469440 -0.000001 173.155000 8.690000 166.786000 -39.081100 -0.002282 -0.040193 0.059017 -0.037676 55.970500 -40.985400 0.000008 0.000006 4.356610 4.614150 -80.542100 -11.754300 -0.000006 -0.000006 -0.706594 -0.865611 -17.451800
0.000000 0.000000 0.000000 0.000000 0.000000 -0.000000 2.429100 87.037600 -0.414189 91.531800 -8.376180 10.025500 15.735700 0.000005 -0.000001 102.531000 81.752700 -101.928000 8.984550 -0.406207 -0.000000 8.329200 3.565370 0.945282 16.377300 -0.000001 -0.000001 2.540800 -2.549260 0.038105 6.456720 -0.000001 -0.000000 -2.049270 -4.551970 -3.249650 12.994200 -0.242716 4.980390 -91.411400 3.032370 -65.026300 5.348090 -0.000007 -0.000001 -55.996800 -7.829830 -0.177575 24.328600 0.000019 0.000005 4.866150 8.258630 -30.661700 22.291600 -0.000001 0.000005 17.929300 5.301110 0.044581 12.994500 -0.242716 -4.980390 88.764000 6.405810 -79.054800 -5.348130 -0.000001 -0.000004 -62.260300 28.539600 -12.542300 -24.328900 0.000322 -0.000009 -0.678357 -1.273410 -28.009200 -22.291500 -0.000108 -0.000004 15.688300 5.440630 -4.308440 -2.192480 -6.469440 -0.000000 -177.484000 -20.716200 -7.628120 39.081100 -0.000007 -0.000012 -0.123285 0.118156 46.217800 40.985400 -0.000006 -0.000013 4.393930 6.864950 -78.739800 11.754300 -0.000000 0.000003 -0.000026 -0.000317 -16.589900 -2.192510 6.469440 -0.000001 173.099000 9.701700 168.520000 -39.081100 -0.002282 -0.040193 0.041707 -0.033568 48.882600 -40.985400 0.000008 0.000006 4.960270 7.840060 -76.868100 -11.754300 -0.000006 -0.000006 -0.257778 -0.328379 -17.804100
0.000000 0.000000 0.000000 0.000000 0.000000 -0.000000 2.356900 88.808900 -0.465980 91.233200 -9.480020 8.727220 15.735700 0.000005 -0.000001 102.021000 82.852800 -100.769000 8.984550 -0.406207 -0.000000 6.190080 2.951550 2.343000 16.377300 -0.000001 -0.000001 5.188620 -0.985475 -1.007520 6.456720 -0.000001 -0.000000 -1.336820 -1.766070 -5.866900 12.994200 -0.242716 4.980390 -90.470100 1.026230 -65.389900 5.348090 -0.000007 -0.000001 -46.573300 -20.950100 -10.515000 24.328600 0.000019 0.000005 2.544500 3.347930 -37.274300 22.291600 -0.000001 0.000005 22.039700 5.360810 -1.698750 12.994500 -0.242716 -4.980390 88.729200 6.040080 -78.095700 -5.348130 -0.000001 -0.000004 -63.198700 28.194000 -10.596700 -24.328900 0.000322 -0.000009 -1.137540 -1.977180 -29.897100 -22.291500 -0.000108 -0.000004 14.227100 5.454140 -4.788500 -2.192480 -6.469440 -0.000000 -177.825000 -19.997500 -5.678980 39.081100 -0.000007 -0.000012 -0.123859 0.150504 39.453500 40.985400 -0.000006 -0.000013 3.407840 5.827070 -75.244300 11.754300 -0.000000 0.000003 -0.000023 -0.000284 -16.588700 -2.192510 6.469440 -0.000001 173.113000 12.604400 170.559000 -39.081100 -0.002282 -0.040193 0.029056 -0.028504 42.130300 -40.985400 0.000008 0.000006 5.413870 11.578700 -73.777900 -11.754300 -0.000006 -0.000006 -0.003169 -0.042499 -18.301500
0.000000 0.000000 0.000000 0.000000 0.000000 -0.000000 1.944900 89.941100 -0.496605 90.568500 -9.265610 8.151300 15.735700 0.000005 -0.000001 100.359000 83.516700 -98.818300 8.984550 -0.406207 -0.000000 4.963380 2.289210 2.978410 16.377300 -0.000001 -0.000001 6.685680 -1.002190 -0.791341 6.456720 -0.000001 -0.000000 -0.657725 -1.046320 -5.878690 12.994200 -0.242716 4.980390 -89.385200 -1.462900 -67.196500 5.348090 -0.000007 -0.000001 -38.734400 -35.186300 -23.156600 24.328600 0.000019 0.000005 2.593470 2.477050 -46.346000 22.291600 -0.000001 0.000005 25.152700 5.419120 -3.566270 12.994500 -0.242716 -4.980390 88.598500 6.267840 -77.369100 -5.348130 -0.000001 -0.000004 -63.129800 28.035100 -8.735750 -24.328900 0.000322 -0.000009 -1.596350 -2.638420 -31.173800 -22.291500 -0.000108 -0.000004 13.786600 5.463590 -5.132410 -2.192480 -6.469440 -0.000000 -177.408000 -18.186500 -3.964230 39.081100 -0.000007 -0.000012 -0.119944 0.172801 34.765600 40.985400 -0.000006 -0.000013 2.516420 4.956750 -72.735600 11.754300 -0.000000 0.000003 -0.000013 -0.000171 -16.584300 -2.192510 6.469440 -0.000001 173.493000 15.957700 173.084000 -39.081100 -0.002282 -0.040193 0.017949 -0.019626 36.763400 -40.985400 0.000008 0.000006 5.562240 14.550800 -71.743800 -11.754300 -0.000006 -0.000006 -0.003964 -0.051066 -18.650300
0.000000 0.000000 0.000000 0.000000 0.000000 -0.000000 1.548240 90.579100 -0.675368 89.603600 -8.766700 7.789570 15.735700 0.000005 -0.000001 95.659500 83.861700 -93.928400 8.984550 -0.406207 -0.000000 4.436390 1.158380 3.413320 16.377300 -0.000001 -0.000001 6.825640 -1.455650 -0.822324 6.456720 -0.000001 -0.000000 -0.327309 -1.317300 -4.094460 12.994200 -0.242716 4.980390 -88.260200 -4.538060 -68.998800 5.348090 -0.000007 -0.000001 -30.306000 -47.307500 -34.245500 24.328600 0.000019 0.000005 4.010480 2.805030 -55.083600 22.291600 -0.000001 0.000005 30.819300 5.425440 -3.787280 12.994500 -0.242716 -4.980390 88.506200 6.486400 -77.001600 -5.348130 -0.000001 -0.000004 -61.753500 28.666200 -8.648800 -24.328900 0.000322 -0.000009 -1.250910 -2.094190 -30.837600 -22.291500 -0.000108 -0.000004 14.447900 5.462950 -5.109360 -2.192480 -6.469440 -0.000000 -176.551000 -16.611100 -3.149170 39.081100 -0.000007 -0.000012 -0.118874 0.188413 32.249000 40.985400 -0.000006 -0.000013 1.906180 4.310160 -71.243400 11.754300 -0.000000 0.000003 -0.000013 -0.000175 -16.584400 -2.192510 6.469440 -0.000001 174.410000 18.199500 174.966000 -39.081100 -0.002282 -0.040193 0.009379 -0.009381 32.963000 -40.985400 0.000008 0.000006 5.582660 16.123100 -70.368300 -11.754300 -0.000006 -0.000006 -0.003957 -0.050991 -18.647300
0.000000 0.000000 0.000000 0.000000 0.000000 -0.000000 1.587160 90.948300 -1.006760 88.978500 -9.320910 6.977750 15.735700 0.000005 -0.000001 90.381100 84.264900 -88.544300 8.984550 -0.406207 -0.000000 3.706310 0.011180 3.669340 16.377300 -0.000001 -0.000001 6.725010 -1.077640 -1.966690 6.456720 -0.000001 -0.000000 -0.154599 -1.870520 -1.553070 12.994200 -0.242716 4.980390 -86.596300 -8.290270 -67.585900 5.348090 -0.000007 -0.000001 -20.124100 -53.874700 -41.260900 24.328600 0.000019 0.000005 6.060730 3.704640 -58.678900 22.291600 -0.000001 0.000005 37.925400 5.422150 -3.673430 12.994500 -0.242716 -4.980390 88.518400 6.600810 -77.319000 -5.348130 -0.000001 -0.000004 -60.366100 28.266000 -9.086210 -24.328900 0.000322 -0.000009 0.228781 0.402971 -29.711300 -22.291500 -0.000108 -0.000004 15.242100 5.441330 -4.332860 -2.192480 -6.469440 -0.000000 -176.275000 -16.419600 -3.435110 39.081100 -0.000007 -0.000012 -0.112903 0.189170 30.830300 40.985400 -0.000006 -0.000013 1.696610 3.685400 -70.288000 11.754300 -0.000000 0.000003 -0.000013 -0.000165 -16.584000 -2.192510 6.469440 -0.000001 175.035000 19.788200 175.234000 -39.081100 -0.002282 -0.040193 0.002955 0.000585 30.544500 -40.985400 0.000008 0.000006 5.483890 18.160400 -69.182300 -11.754300 -0.000006 -0.000006 -0.004054 -0.051998 -18.688300
0.000000 0.000000 0.000000 0.000000 0.000000 -0.000000 1.882530 91.183900 -1.199360 88.589700 -10.936500 6.283350 15.735700 0.000005 -0.000001 86.974900 84.587100 -84.910400 8.984550 -0.406207 -0.000000 3.060040 -0.655433 4.142190 16.377300 -0.000001 -0.000001 6.927800 -0.187673 -3.745080 6.456720 -0.000001 -0.000000 -0.568139 -1.940660 -0.686759 12.994200 -0.242716 4.980390 -84.925500 -10.616100 -64.266100 5.348090 -0.000007 -0.000001 -19.405300 -59.557800 -53.204400 24.328600 0.000019 0.000005 13.087500 9.145960 -55.640300 22.291600 -0.000001 0.000005 34.591000 5.397560 -2.856380 12.994500 -0.242716 -4.980390 88.541400 6.617350 -77.540300 -5.348130 -0.000001 -0.000004 -59.884100 25.969600 -9.295400 -24.328900 0.000322 -0.000009 1.559280 2.844840 -28.760300 -22.291500 -0.000108 -0.000004 15.841000 5.417630 -3.519490 -2.192480 -6.469440 -0.000000 -176.296000 -16.944900 -3.587270 39.081100 -0.000007 -0.000012 -0.106143 0.185347 29.798800 40.985400 -0.000006 -0.000013 1.568940 2.617860 -69.744000 11.754300 -0.000000 0.000003 -0.000013 -0.000175 -16.584400 -2.192510 6.469440 -0.000001 175.387000 20.111600 175.088000 -39.081100 -0.002282 -0.040193 -0.022408 0.046722 28.825100 -40.985400 0.000008 0.000006 4.946090 20.232900 -68.025300 -11.754300 -0.000006 -0.000006 -0.003944 -0.050859 -18.641900
